<svg width="45" height="45" viewBox="0 0 45 45" fill="none" xmlns="http://www.w3.org/2000/svg">
<g filter="url(#filter0_d_25_9)">
<path d="M15 16.875H30M15 23.4375H25.3125" stroke="#1E3A8A" stroke-width="1.5" stroke-linecap="round" shape-rendering="crispEdges"/>
</g>
<g filter="url(#filter1_d_25_9)">
<path d="M2.34375 19.6875C2.34375 20.0605 2.49191 20.4181 2.75563 20.6819C3.01935 20.9456 3.37704 21.0938 3.75 21.0938C4.12296 21.0938 4.48065 20.9456 4.74437 20.6819C5.00809 20.4181 5.15625 20.0605 5.15625 19.6875H2.34375ZM5.76375 29.2987C5.62103 28.9541 5.34726 28.6803 5.00266 28.5376C4.65806 28.3948 4.27087 28.3948 3.92625 28.5375C3.58163 28.6802 3.30783 28.954 3.16507 29.2986C3.0223 29.6432 3.02228 30.0304 3.165 30.375L5.76375 29.2987ZM25.7475 40.8188L26.7637 39.1012L24.345 37.6688L23.3269 39.3862L25.7475 40.8188ZM18.2362 39.1012L19.2525 40.8188L21.6712 39.3862L20.6569 37.6688L18.2362 39.1012ZM23.3269 39.3862C23.2392 39.5265 23.1174 39.6422 22.9727 39.7224C22.8281 39.8026 22.6654 39.8446 22.5 39.8446C22.3346 39.8446 22.1719 39.8026 22.0273 39.7224C21.8826 39.6422 21.7608 39.5265 21.6731 39.3862L19.2525 40.8188C20.7019 43.2694 24.2962 43.2694 25.7475 40.8188L23.3269 39.3862ZM19.6875 5.15625H25.3125V2.34375H19.6875V5.15625ZM39.8437 19.6875V21.5625H42.6562V19.6875H39.8437ZM14.6306 34.2038C12.2756 34.1625 11.0419 34.0125 10.0744 33.6113L9 36.21C10.5094 36.8363 12.2269 36.9769 14.5819 37.0181L14.6306 34.2038ZM3.165 30.375C3.70681 31.6831 4.50098 32.8717 5.50215 33.8729C6.50332 34.874 7.6919 35.6682 9 36.21L10.0744 33.6113C8.1219 32.8025 6.57253 31.2512 5.76375 29.2987L3.165 30.375ZM39.8437 21.5625C39.8437 23.7656 39.8438 25.3481 39.7575 26.5969C39.6731 27.8325 39.5119 28.6388 39.2381 29.2987L41.835 30.375C42.2756 29.3138 42.4687 28.1663 42.5644 26.7881C42.6581 25.4212 42.6562 23.7281 42.6562 21.5625H39.8437ZM30.4181 37.0144C32.7731 36.975 34.4906 36.8363 36 36.21L34.9237 33.6113C33.9581 34.0125 32.7244 34.1625 30.3712 34.2038L30.4181 37.0144ZM39.2381 29.2987C38.4293 31.2512 36.8781 32.8025 34.9256 33.6113L36 36.21C37.3081 35.6682 38.4967 34.874 39.4978 33.8729C40.499 32.8717 41.2932 31.6831 41.835 30.375L39.2381 29.2987ZM25.3125 5.15625C28.4081 5.15625 30.6319 5.15625 32.3662 5.32313C34.08 5.48625 35.1694 5.7975 36.0394 6.33L37.5075 3.93188C36.1219 3.08438 34.5506 2.70563 32.6325 2.52188C30.735 2.34188 28.3537 2.34375 25.3125 2.34375V5.15625ZM42.6562 19.6875C42.6562 16.6462 42.6562 14.2669 42.4762 12.3675C42.2944 10.4494 41.9156 8.87625 41.0681 7.4925L38.6681 8.96063C39.2025 9.83063 39.5137 10.92 39.6769 12.6356C39.8419 14.3681 39.8437 16.5919 39.8437 19.6875H42.6562ZM36.0375 6.33C37.1103 6.98681 38.0124 7.88826 38.67 8.96063L41.0681 7.4925C40.1789 6.04121 38.9588 4.82106 37.5075 3.93188L36.0375 6.33ZM19.6875 2.34375C16.6462 2.34375 14.2669 2.34375 12.3675 2.52188C10.4494 2.70563 8.87625 3.08438 7.4925 3.93188L8.96062 6.33188C9.83062 5.7975 10.92 5.48625 12.6356 5.32313C14.3681 5.15813 16.5919 5.15625 19.6875 5.15625V2.34375ZM5.15625 19.6875C5.15625 16.5919 5.15625 14.3681 5.32312 12.6338C5.48625 10.92 5.7975 9.83063 6.33 8.96063L3.93187 7.49438C3.08437 8.87813 2.70563 10.4494 2.52188 12.3675C2.34375 14.2688 2.34375 16.6462 2.34375 19.6875H5.15625ZM7.4925 3.93188C6.04121 4.82106 4.82105 6.04308 3.93187 7.49438L6.33187 8.96063C6.98838 7.88869 7.88916 6.98727 8.96062 6.33L7.4925 3.93188ZM20.655 37.6688C20.2762 37.0256 19.9425 36.4575 19.6162 36.0112C19.282 35.5208 18.8458 35.1083 18.3375 34.8019L16.9237 37.2337C17.0119 37.2863 17.1337 37.38 17.3437 37.6688C17.5706 37.98 17.8275 38.4113 18.2362 39.1012L20.655 37.6688ZM14.5819 37.0144C15.4069 37.0294 15.9262 37.0406 16.3237 37.0837C16.695 37.125 16.8394 37.185 16.9237 37.2337L18.3375 34.8019C17.8135 34.5086 17.2319 34.3333 16.6331 34.2881C16.0744 34.2263 15.4031 34.2169 14.6306 34.2038L14.5819 37.0144ZM26.7637 39.1012C27.1725 38.4131 27.4294 37.98 27.6562 37.6688C27.8662 37.38 27.9881 37.2863 28.0762 37.2337L26.6625 34.8019C26.1187 35.1206 25.725 35.5425 25.3837 36.0112C25.0594 36.4575 24.7237 37.0238 24.3431 37.6688L26.7637 39.1012ZM30.3712 34.2038C29.5987 34.2169 28.9256 34.2263 28.3669 34.2881C27.7837 34.3538 27.2119 34.4831 26.6625 34.8019L28.0762 37.2337C28.1606 37.185 28.305 37.125 28.6762 37.0837C29.0737 37.0406 29.595 37.0275 30.42 37.0144L30.3712 34.2038Z" fill="#1E3A8A"/>
</g>
<defs>
<filter id="filter0_d_25_9" x="12.25" y="14.125" width="20.5" height="12.0625" filterUnits="userSpaceOnUse" color-interpolation-filters="sRGB">
<feFlood flood-opacity="0" result="BackgroundImageFix"/>
<feColorMatrix in="SourceAlpha" type="matrix" values="0 0 0 0 0 0 0 0 0 0 0 0 0 0 0 0 0 0 127 0" result="hardAlpha"/>
<feOffset/>
<feGaussianBlur stdDeviation="1"/>
<feComposite in2="hardAlpha" operator="out"/>
<feColorMatrix type="matrix" values="0 0 0 0 0.117647 0 0 0 0 0.227451 0 0 0 0 0.541176 0 0 0 1 0"/>
<feBlend mode="normal" in2="BackgroundImageFix" result="effect1_dropShadow_25_9"/>
<feBlend mode="normal" in="SourceGraphic" in2="effect1_dropShadow_25_9" result="shape"/>
</filter>
<filter id="filter1_d_25_9" x="0.34375" y="0.34375" width="44.3125" height="44.313" filterUnits="userSpaceOnUse" color-interpolation-filters="sRGB">
<feFlood flood-opacity="0" result="BackgroundImageFix"/>
<feColorMatrix in="SourceAlpha" type="matrix" values="0 0 0 0 0 0 0 0 0 0 0 0 0 0 0 0 0 0 127 0" result="hardAlpha"/>
<feOffset/>
<feGaussianBlur stdDeviation="1"/>
<feComposite in2="hardAlpha" operator="out"/>
<feColorMatrix type="matrix" values="0 0 0 0 0.117647 0 0 0 0 0.227451 0 0 0 0 0.541176 0 0 0 1 0"/>
<feBlend mode="normal" in2="BackgroundImageFix" result="effect1_dropShadow_25_9"/>
<feBlend mode="normal" in="SourceGraphic" in2="effect1_dropShadow_25_9" result="shape"/>
</filter>
</defs>
</svg>
