<svg width="33" height="33" viewBox="0 0 33 33" fill="none" xmlns="http://www.w3.org/2000/svg">
<path d="M16.5 16.5C17.2563 16.5 17.9036 16.2307 18.4422 15.6922C18.9807 15.1536 19.25 14.5063 19.25 13.75C19.25 12.9938 18.9807 12.3464 18.4422 11.8078C17.9036 11.2693 17.2563 11 16.5 11C15.7438 11 15.0964 11.2693 14.5578 11.8078C14.0193 12.3464 13.75 12.9938 13.75 13.75C13.75 14.5063 14.0193 15.1536 14.5578 15.6922C15.0964 16.2307 15.7438 16.5 16.5 16.5ZM16.5 26.6063C19.2958 24.0396 21.3698 21.7078 22.7219 19.6109C24.074 17.5141 24.75 15.6521 24.75 14.025C24.75 11.5271 23.9536 9.48177 22.3609 7.88906C20.7682 6.29635 18.8146 5.5 16.5 5.5C14.1854 5.5 12.2318 6.29635 10.6391 7.88906C9.04635 9.48177 8.25 11.5271 8.25 14.025C8.25 15.6521 8.92604 17.5141 10.2781 19.6109C11.6302 21.7078 13.7042 24.0396 16.5 26.6063ZM16.5 30.25C12.8104 27.1104 10.0547 24.1943 8.23281 21.5016C6.41094 18.8089 5.5 16.3167 5.5 14.025C5.5 10.5875 6.60573 7.84896 8.81719 5.80938C11.0286 3.76979 13.5896 2.75 16.5 2.75C19.4104 2.75 21.9714 3.76979 24.1828 5.80938C26.3943 7.84896 27.5 10.5875 27.5 14.025C27.5 16.3167 26.5891 18.8089 24.7672 21.5016C22.9453 24.1943 20.1896 27.1104 16.5 30.25Z" fill="white"/>
</svg>
